<svg aria-hidden="true" style="position: absolute; width: 0; height: 0; overflow: hidden;" version="1.1" xmlns="http://www.w3.org/2000/svg" xmlns:xlink="http://www.w3.org/1999/xlink">
<defs>
<symbol id="icon-antenna" viewBox="0 0 32 32">
<path fill="#212121" style="fill: var(--color1, #212121)" d="M30.773 22.098l-8.443-8.505 0.937-4.616c0.225 0.090 0.485 0.144 0.758 0.146h0.007c0.008 0 0.017 0 0.026 0 1.192 0 2.159-0.967 2.159-2.159s-0.967-2.159-2.159-2.159c-1.192 0-2.159 0.967-2.159 2.159 0 0.259 0.046 0.508 0.13 0.739l-0.005-0.015-4.96 0.606-8.091-8.133c-0.096-0.098-0.229-0.159-0.376-0.16h-0c-0.14 0.001-0.274 0.057-0.373 0.155l-1.512 1.504c-0.096 0.097-0.156 0.23-0.156 0.377s0.060 0.281 0.156 0.377v0l0.814 0.825c-1.143 2.062-1.816 4.522-1.816 7.139 0 4.106 1.656 7.824 4.336 10.525l-0.001-0.001c0.043 0.041 0.092 0.074 0.146 0.097-0.032 0.164-0.051 0.353-0.052 0.546v6.188h-6.4c-1.472 0.001-2.666 1.194-2.667 2.666v1.067c0 0.295 0.239 0.534 0.534 0.534h24.534c0.294 0 0.533-0.239 0.533-0.534v-1.067c-0.002-1.472-1.195-2.665-2.666-2.666h-6.4v-2.742c1.003 0.21 2.024 0.317 3.049 0.32 2.58-0.003 5.005-0.663 7.117-1.822l-0.077 0.039 0.818 0.823c0.099 0.101 0.235 0.159 0.376 0.16 0.14-0.001 0.274-0.057 0.373-0.155l1.512-1.504c0.096-0.097 0.156-0.23 0.156-0.377s-0.060-0.281-0.156-0.377v0zM23.28 6.233c0.193-0.192 0.459-0.31 0.752-0.31 0.589 0 1.067 0.478 1.067 1.066s-0.477 1.066-1.067 1.066c-0 0-0 0-0 0h-0.004c-0.587-0.003-1.061-0.479-1.061-1.066 0-0.295 0.12-0.563 0.314-0.756l0-0h-0.002zM22.024 9.737l-0.598 2.946-1.175-1.183 1.774-1.763zM21.419 8.835l-1.92 1.909-1.486-1.493 3.406-0.416zM24.004 28.8c0.884 0 1.6 0.716 1.6 1.6v0 0.534h-23.466v-0.534c0-0.884 0.716-1.6 1.6-1.6v0h20.267zM16.538 26.666v1.067h-5.334v-1.067h5.334zM11.204 25.6v-4.053c0-1.294 1.196-2.346 2.667-2.346s2.667 1.053 2.667 2.346v4.053h-5.334zM17.604 23.904v-2.357c0-1.882-1.675-3.413-3.733-3.413-0.017-0-0.038-0-0.058-0-1.353 0-2.54 0.707-3.213 1.771l-0.009 0.016c-2.36-2.482-3.812-5.846-3.812-9.55 0-2.314 0.567-4.496 1.569-6.414l-0.036 0.077 18.602 18.709c-1.823 0.947-3.979 1.502-6.266 1.502-1.079 0-2.128-0.124-3.136-0.357l0.093 0.018zM28.893 23.22l-21.057-21.181 0.754-0.752 7.935 7.98c0.004 0 0.006 0.007 0.010 0.010l13.114 13.191-0.757 0.752z"></path>
<path fill="#2196f3" style="fill: var(--color2, #2196f3)" d="M13.876 20.267h-0.005c-0.001 0-0.002 0-0.002 0-0.884 0-1.6 0.716-1.6 1.6s0.715 1.599 1.597 1.6h0.005c0.001 0 0.001 0 0.002 0 0.884 0 1.6-0.716 1.6-1.6s-0.715-1.599-1.598-1.6h-0zM14.249 22.245c-0.096 0.096-0.229 0.155-0.376 0.155-0.295 0-0.534-0.239-0.534-0.534s0.238-0.533 0.532-0.533h0c0.293 0.001 0.531 0.239 0.531 0.533 0 0.148-0.060 0.282-0.157 0.378l-0 0h0.005z"></path>
</symbol>
<symbol id="icon-astronaut" viewBox="0 0 32 32">
<path fill="#2196f3" style="fill: var(--color2, #2196f3)" d="M31.974 4.524c-0.064-0.191-0.227-0.332-0.427-0.362l-0.003-0-1.911-0.278-0.855-1.731c-0.179-0.365-0.777-0.365-0.956 0l-0.855 1.731-1.911 0.278c-0.26 0.039-0.457 0.26-0.457 0.528 0 0.15 0.062 0.285 0.161 0.382l1.383 1.348-0.326 1.903c-0.034 0.2 0.048 0.402 0.212 0.522 0.166 0.12 0.383 0.135 0.562 0.040l1.709-0.899 1.709 0.899c0.072 0.038 0.157 0.061 0.247 0.061 0.295 0 0.534-0.239 0.534-0.534 0-0.031-0.003-0.062-0.008-0.092l0 0.003-0.326-1.903 1.383-1.348c0.099-0.097 0.161-0.233 0.161-0.382 0-0.059-0.009-0.115-0.027-0.168l0.001 0.004zM29.511 5.851c-0.126 0.122-0.183 0.299-0.153 0.472l0.191 1.114-1-0.526c-0.072-0.039-0.158-0.062-0.249-0.062s-0.177 0.023-0.252 0.063l0.003-0.001-1 0.526 0.191-1.114c0.005-0.027 0.008-0.059 0.008-0.091 0-0.149-0.061-0.285-0.16-0.381l-0-0-0.811-0.79 1.119-0.162c0.174-0.025 0.324-0.134 0.402-0.292l0.5-1.013 0.5 1.013c0.078 0.158 0.228 0.267 0.402 0.292l1.119 0.162-0.809 0.79zM26.134 20.522h-1.067v1.067h1.067v-1.067zM26.134 22.656h-1.067v1.066h1.067v-1.066zM27.2 21.589h-1.067v1.067h1.067v-1.067zM25.067 21.589h-1.067v1.067h1.067v-1.067zM22.4 26.389h-1.067v1.067h1.067v-1.067zM22.4 28.523h-1.067v1.067h1.067v-1.067zM23.467 27.456h-1.067v1.067h1.067v-1.067zM21.334 27.456h-1.067v1.067h1.067v-1.067zM16 24.256h-1.066v1.067h1.066v-1.067zM16 26.389h-1.066v1.067h1.066v-1.067zM17.067 25.322h-1.067v1.067h1.067v-1.067zM14.934 25.322h-1.067v1.067h1.067v-1.067zM5.867 6.122h-1.066v1.066h1.066v-1.066zM5.867 8.256h-1.066v1.066h1.066v-1.066zM6.933 7.189h-1.067v1.067h1.066v-1.067zM4.8 7.189h-1.067v1.067h1.067v-1.067z"></path>
<path fill="#212121" style="fill: var(--color1, #212121)" d="M24.715 14.16c-0.28-0.376-0.698-0.636-1.179-0.703l-0.009-0.001c-0.076-0.012-0.164-0.018-0.254-0.018-0.411 0-0.789 0.139-1.090 0.373l0.004-0.003-1.253 0.96-1.898 1.417-1.358-0.541c2.421-1.086 4.113-3.508 4.113-6.32 0-3.823-3.122-6.934-6.961-6.934s-6.961 3.11-6.961 6.934c0 1.386 0.415 2.674 1.12 3.759l-2.768-0.024c-0.009 0-0.016 0.005-0.023 0.005-0.057 0.003-0.11 0.014-0.159 0.033l0.004-0.001c-0.013 0.005-0.026 0.007-0.038 0.013-0.006 0.003-0.013 0.003-0.019 0.006l-3.233 1.596c-0 0-0.001 0-0.001 0.001l-1.893 0.91c-0.024 0.011-0.045 0.023-0.065 0.036l0.001-0.001c-0.482 0.324-0.795 0.867-0.795 1.483 0 0.297 0.073 0.577 0.201 0.823l-0.005-0.010c0.22 0.424 0.592 0.742 1.043 0.885l0.013 0.003c0.161 0.053 0.345 0.083 0.537 0.083 0.308 0 0.598-0.078 0.851-0.216l-0.009 0.005 1.388-0.738 2.264-1.169 1.357-0.008-5.442 5.415c0 0.001-0.001 0.001-0.001 0.001l-1.339 1.333c-0.303 0.299-0.491 0.714-0.491 1.173 0 0.002 0 0.003 0 0.005v-0c0.002 0.919 0.748 1.664 1.667 1.664 0.001 0 0.002 0 0.002 0h-0c0.428 0 0.854-0.162 1.18-0.485l1.314-1.309 1.741-1.3 0.901 0.897-3.102 3.088c-0.303 0.299-0.491 0.714-0.491 1.173 0 0.001 0 0.003 0 0.004v-0c0 0.445 0.174 0.864 0.49 1.179 0.302 0.3 0.717 0.485 1.176 0.485 0.001 0 0.002 0 0.003 0h-0c0.427 0 0.855-0.162 1.18-0.485l4.488-4.472c0.007-0.006 0.016-0.009 0.022-0.016l5.166-5.658 3.471 0.494c0.025 0.004 0.050 0.006 0.075 0.006 0.064 0 0.127-0.016 0.187-0.038 0.017-0.006 0.032-0.015 0.049-0.023 0.019-0.010 0.039-0.015 0.058-0.027l3.213-2.133c0.012-0.008 0.018-0.021 0.029-0.030 0.013-0.010 0.029-0.014 0.041-0.026l1.271-1.191c0.348-0.326 0.564-0.787 0.564-1.3 0-0.4-0.132-0.769-0.355-1.066l0.003 0.005zM2.13 17.77c-0.098 0.054-0.215 0.086-0.34 0.086-0.078 0-0.153-0.013-0.224-0.036l0.005 0.001c-0.294-0.093-0.504-0.364-0.504-0.683 0-0.235 0.114-0.444 0.289-0.575l0.002-0.001 1.314-0.632 0.316 0.924 0.133 0.389-0.992 0.527zM5.627 15.942l-1.548 0.8-0.255-0.746-0.184-0.537 2.027-1.001-0.040 1.484zM20.727 9.322c0 0.918-0.219 1.785-0.599 2.56l-4.181-1.899c-0.044-0.575-0.342-1.072-0.782-1.384l-0.006-0.004 1.464-4.861c2.377 0.757 4.104 2.975 4.104 5.588zM8.938 9.322c0-3.235 2.644-5.867 5.894-5.867 0.253 0 0.5 0.022 0.745 0.053l-1.432 4.753c-0.019 0-0.037-0.006-0.057-0.006-0 0-0.001 0-0.001 0-1.032 0-1.869 0.835-1.872 1.867v0c0.003 1.031 0.84 1.867 1.872 1.867 0 0 0 0 0.001 0h-0c0.695 0 1.295-0.383 1.618-0.944l3.863 1.755c-1.075 1.447-2.795 2.39-4.737 2.39-3.25 0-5.894-2.632-5.894-5.867zM14.895 10.122c0 0.441-0.362 0.8-0.806 0.8-0 0-0.001 0-0.001 0-0.443 0-0.802-0.358-0.804-0.8v-0c0-0.441 0.361-0.8 0.806-0.8s0.806 0.359 0.806 0.8zM2.464 25.146c-0.11 0.109-0.261 0.176-0.428 0.176s-0.317-0.067-0.427-0.175l0 0c-0.109-0.108-0.176-0.257-0.176-0.422s0.067-0.314 0.176-0.422l0-0 0.962-0.959 0.852 0.848-0.959 0.954zM5.678 28.88c-0.11 0.109-0.261 0.176-0.428 0.176s-0.317-0.067-0.427-0.175l0 0c-0.109-0.108-0.176-0.257-0.176-0.422s0.067-0.314 0.176-0.422l0-0 0.963-0.959 0.852 0.848-0.96 0.955zM9.16 25.411l-0.001 0.001-1.765 1.76-0.852-0.848 1.765-1.757c0.040-0.040 0.065-0.088 0.090-0.136 0.007-0.014 0.020-0.026 0.026-0.040 0.016-0.041 0.019-0.085 0.026-0.128 0.003-0.025 0.014-0.048 0.014-0.073 0-0.035-0.013-0.070-0.020-0.105-0.006-0.032-0.006-0.064-0.019-0.096-0.025-0.053-0.055-0.098-0.092-0.138l0 0c-0.010-0.012-0.014-0.026-0.025-0.038h-0.001s0-0.001-0.001-0.002l-1.607-1.6c-0.017-0.017-0.039-0.024-0.058-0.038-0.025-0.021-0.054-0.040-0.084-0.056l-0.003-0.001c-0.026-0.012-0.058-0.023-0.090-0.031l-0.003-0.001c-0.030-0.009-0.065-0.017-0.101-0.020l-0.002-0c-0.007-0-0.015-0-0.023-0-0.026 0-0.051 0.002-0.075 0.005l0.003-0c-0.036 0.005-0.069 0.009-0.104 0.021s-0.064 0.027-0.094 0.045c-0.020 0.011-0.043 0.015-0.061 0.029l-1.774 1.324-0.901-0.897 2.399-2.386 4.36 4.289-0.928 0.919zM15.979 18.394c-0.016-0.002-0.030 0.004-0.046 0.003-0.008-0-0.017-0.001-0.027-0.001-0.031 0-0.062 0.003-0.092 0.008l0.003-0c-0.070 0.011-0.132 0.035-0.187 0.070l0.002-0.001c-0.030 0.018-0.057 0.037-0.083 0.061-0.013 0.011-0.028 0.016-0.040 0.029l-4.698 5.146-4.328-4.256 2.833-2.818c0.096-0.097 0.156-0.23 0.156-0.377 0-0.295-0.239-0.534-0.534-0.534-0.001 0-0.001 0-0.002 0h0l-2.219 0.013 0.028-1.607 3.104 0.027c1.264 1.297 3.027 2.101 4.978 2.101 0.001 0 0.002 0 0.003 0h-0c0.438 0 0.864-0.046 1.28-0.122 0.040 0.032 0.080 0.064 0.129 0.085l2.41 0.96 0.152 0.758 0.178 0.886-3.003-0.427zM20.020 18.572l-0.313-1.558 1.446-1.080 0.946 1.257-2.080 1.381zM23.773 15.741l-0.837 0.785-0.931-1.236 0.831-0.637c0.155-0.119 0.351-0.168 0.543-0.143 0.193 0.027 0.364 0.128 0.48 0.284 0.088 0.117 0.141 0.265 0.141 0.426 0 0.206-0.087 0.391-0.226 0.521l-0 0z"></path>
<path fill="#212121" style="fill: var(--color1, #212121)" d="M13.602 18.544l-2.143-2.134c-0.096-0.096-0.229-0.155-0.376-0.155s-0.28 0.059-0.376 0.155l-2.143 2.133c-0.097 0.097-0.156 0.23-0.156 0.378s0.060 0.281 0.156 0.378l-0-0 2.142 2.134c0.096 0.096 0.229 0.156 0.376 0.156s0.28-0.059 0.376-0.156v0l2.143-2.134c0.097-0.097 0.157-0.23 0.157-0.378s-0.060-0.281-0.157-0.378l-0-0zM11.083 20.303l-1.387-1.381 1.386-1.381 1.387 1.381-1.387 1.381zM17.164 5.071l-0.258 1.036c0.071 0.018 1.738 0.452 1.738 2.149h1.067c0-2.017-1.666-2.965-2.547-3.184zM19.711 9.322h-1.067v1.066h1.067v-1.066z"></path>
</symbol>
<symbol id="icon-client-1" viewBox="0 0 32 32">
<path d="M6.085 0l4.771 4.517-8.856-0.005v21.915h23.149v-8.379l4.766 4.512v-22.559h-23.83zM24.939 17.517l-13.528-12.807h13.528v12.807zM20.739 23.221h-15.076v-14.739h1.066v13.741h14.010v0.998zM9.223 29.344h0.465l-0.811 1.529v0.891h-0.422v-0.891l-0.813-1.529h0.467l0.557 1.147 0.557-1.147zM9.923 31.764l0.196-0.563h0.938l0.198 0.563h0.439l-0.916-2.42h-0.377l-0.914 2.42h0.437zM10.588 29.858l0.351 1.004h-0.701l0.351-1.004zM12.805 30.804c0.061-0.094 0.181-0.206 0.361-0.334-0.094-0.119-0.16-0.219-0.198-0.303-0.037-0.083-0.055-0.163-0.055-0.241 0-0.189 0.058-0.339 0.173-0.449s0.27-0.166 0.465-0.166c0.176 0 0.32 0.052 0.432 0.156s0.17 0.231 0.17 0.384c0 0.101-0.025 0.194-0.076 0.279-0.051 0.084-0.135 0.168-0.251 0.253l-0.165 0.12 0.467 0.552c0.068-0.133 0.101-0.281 0.101-0.444h0.351c0 0.298-0.070 0.542-0.209 0.733l0.356 0.421h-0.469l-0.136-0.161c-0.173 0.13-0.379 0.194-0.618 0.194s-0.431-0.063-0.575-0.189c-0.143-0.127-0.214-0.293-0.214-0.497 0-0.112 0.030-0.214 0.091-0.307zM13.897 31.339l-0.529-0.623-0.052 0.037c-0.133 0.101-0.2 0.216-0.2 0.346 0 0.112 0.036 0.203 0.108 0.273s0.168 0.105 0.289 0.105c0.136 0 0.264-0.045 0.382-0.136zM13.463 30.267l0.184-0.126 0.052-0.042c0.069-0.061 0.103-0.139 0.103-0.234 0-0.063-0.024-0.117-0.072-0.161-0.048-0.045-0.108-0.068-0.181-0.068-0.079 0-0.141 0.027-0.188 0.080s-0.070 0.12-0.070 0.201c0 0.093 0.057 0.21 0.171 0.351zM17.403 31.581c-0.166 0.144-0.387 0.216-0.663 0.216-0.193 0-0.363-0.045-0.51-0.136-0.146-0.092-0.259-0.222-0.339-0.391s-0.121-0.364-0.125-0.587v-0.226c0-0.228 0.040-0.429 0.121-0.603s0.197-0.308 0.347-0.402c0.152-0.094 0.327-0.141 0.525-0.141 0.267 0 0.482 0.073 0.645 0.218s0.258 0.35 0.284 0.615h-0.419c-0.020-0.174-0.071-0.299-0.153-0.376s-0.2-0.116-0.357-0.116c-0.183 0-0.324 0.067-0.422 0.201-0.098 0.133-0.147 0.329-0.15 0.587v0.214c0 0.262 0.046 0.461 0.14 0.598s0.232 0.206 0.412 0.206c0.165 0 0.289-0.037 0.372-0.111s0.136-0.198 0.158-0.371h0.419c-0.024 0.258-0.12 0.46-0.286 0.605zM19.875 31.242c-0.082 0.178-0.2 0.316-0.352 0.412-0.152 0.095-0.327 0.143-0.525 0.143-0.196 0-0.371-0.048-0.525-0.143-0.153-0.096-0.272-0.233-0.356-0.411-0.083-0.177-0.125-0.382-0.126-0.613v-0.136c0-0.236 0.042-0.444 0.125-0.625 0.084-0.181 0.202-0.319 0.354-0.414 0.153-0.096 0.328-0.145 0.525-0.145s0.372 0.048 0.524 0.143c0.153 0.094 0.271 0.23 0.354 0.409s0.125 0.384 0.126 0.62v0.135c0 0.237-0.041 0.445-0.123 0.625zM19.424 29.874c-0.101-0.143-0.244-0.214-0.43-0.214-0.182 0-0.324 0.072-0.427 0.214s-0.154 0.343-0.156 0.603v0.14c0 0.266 0.052 0.472 0.155 0.617s0.248 0.218 0.432 0.218c0.186 0 0.329-0.071 0.429-0.213 0.101-0.142 0.151-0.349 0.151-0.622v-0.126c0-0.268-0.051-0.474-0.153-0.617z"></path>
</symbol>
<symbol id="icon-client-2" viewBox="0 0 32 32">
<path d="M14.031 1.806c0.142 0 0.294 0.013 0.446 0.026 0.015 0.001 0.030 0.003 0.045 0.004 0.734 0.052 1.463 0.162 2.179 0.329v-1.762c-0.738-0.185-1.491-0.305-2.249-0.358-0.288-0.022-0.595-0.036-0.909-0.044h-0.263c-1.523 0.006-3.039 0.201-4.515 0.582-1.68 0.419-3.293 1.075-4.79 1.948v17.475c1.442-0.783 2.976-1.381 4.566-1.779 1.256-0.32 2.539-0.517 3.833-0.588h0.051c0.216-0.011 0.433-0.017 0.655-0.019v-1.79c-1.681 0.022-3.353 0.244-4.982 0.662-0.602 0.157-1.185 0.325-1.731 0.513l-0.623 0.211v-13.625l0.266-0.128c2.032-0.963 4.229-1.524 6.471-1.651 0.019-0.001 0.037-0.001 0.056 0 0.248-0.013 0.497-0.019 0.741-0.019h0.28c0.129 0.003 0.258 0.006 0.388 0.014h0.084zM17.133 3.607c0.391 0.030 0.796 0.044 1.205 0.044 1.601-0.006 3.195-0.21 4.747-0.609 1.589-0.4 3.123-0.998 4.564-1.781v17.163c-1.498 0.873-3.111 1.529-4.792 1.948-1.475 0.379-2.992 0.574-4.515 0.581-1.154 0.009-2.304-0.126-3.425-0.404v-17.275c0.265 0.061 0.537 0.117 0.814 0.164 0.455 0.077 0.934 0.133 1.401 0.167zM25.867 3.74l-0.623 0.21c-0.573 0.192-1.15 0.365-1.731 0.518-1.691 0.434-3.428 0.657-5.173 0.663-0.406 0-0.78-0.011-1.141-0.034l-0.497-0.033v14.017l0.427 0.038c0.395 0.034 0.803 0.052 1.214 0.052 1.374-0.006 2.743-0.183 4.074-0.527 1.096-0.275 2.162-0.658 3.184-1.144l0.266-0.128v-13.63z"></path>
<path d="M5.184 25.977c-0.090-0.093-0.197-0.166-0.317-0.214s-0.247-0.071-0.376-0.066c-0.137-0.002-0.273 0.024-0.4 0.075-0.117 0.046-0.222 0.116-0.311 0.205s-0.156 0.196-0.201 0.313c-0.049 0.123-0.073 0.254-0.072 0.387v2.335c-0.006 0.165 0.026 0.328 0.092 0.479 0.055 0.12 0.135 0.226 0.233 0.313 0.093 0.079 0.203 0.135 0.321 0.166 0.114 0.032 0.231 0.048 0.349 0.049 0.13 0.001 0.259-0.027 0.377-0.081 0.117-0.051 0.222-0.124 0.311-0.216 0.087-0.091 0.156-0.197 0.204-0.313 0.050-0.118 0.075-0.244 0.075-0.372v-0.261h-0.61v0.208c0.002 0.071-0.010 0.142-0.036 0.208-0.020 0.050-0.050 0.095-0.089 0.131-0.038 0.031-0.081 0.053-0.128 0.067-0.041 0.014-0.084 0.021-0.128 0.022-0.054 0.006-0.11-0.002-0.16-0.024s-0.094-0.057-0.126-0.101c-0.058-0.094-0.086-0.203-0.081-0.313v-2.177c-0.004-0.121 0.022-0.241 0.075-0.349 0.032-0.049 0.077-0.089 0.129-0.114s0.112-0.034 0.17-0.027c0.053-0.002 0.105 0.009 0.152 0.032s0.089 0.057 0.12 0.099c0.068 0.090 0.104 0.2 0.101 0.313v0.202h0.604v-0.238c0.001-0.14-0.024-0.278-0.075-0.408-0.045-0.122-0.114-0.234-0.204-0.329z"></path>
<path d="M8.81 25.95c-0.195-0.164-0.44-0.255-0.694-0.257-0.124 0-0.248 0.023-0.364 0.066-0.119 0.042-0.228 0.107-0.322 0.191-0.101 0.091-0.182 0.202-0.237 0.327-0.061 0.143-0.092 0.297-0.089 0.452v2.239c-0.004 0.158 0.026 0.314 0.089 0.459 0.055 0.12 0.136 0.227 0.237 0.313 0.093 0.087 0.203 0.154 0.322 0.197 0.117 0.043 0.24 0.065 0.364 0.066s0.248-0.023 0.364-0.066c0.121-0.044 0.233-0.111 0.33-0.197 0.097-0.087 0.176-0.194 0.23-0.313 0.063-0.145 0.093-0.301 0.089-0.459v-2.239c0.003-0.155-0.027-0.31-0.089-0.452-0.054-0.123-0.133-0.235-0.23-0.327zM8.525 28.969c0.005 0.060-0.003 0.12-0.024 0.176s-0.054 0.107-0.097 0.148c-0.081 0.068-0.182 0.105-0.287 0.105s-0.207-0.037-0.287-0.105c-0.043-0.041-0.076-0.092-0.097-0.148s-0.029-0.116-0.024-0.176v-2.239c-0.005-0.060 0.003-0.12 0.024-0.176s0.054-0.107 0.097-0.148c0.081-0.068 0.182-0.105 0.287-0.105s0.207 0.037 0.287 0.105c0.043 0.041 0.076 0.092 0.097 0.148s0.029 0.116 0.024 0.176v2.239z"></path>
<path d="M13.572 29.969v-4.239h-0.587l-0.771 2.244h-0.011l-0.777-2.244h-0.581v4.239h0.606v-2.579h0.011l0.593 1.823h0.302l0.598-1.823h0.011v2.579h0.606z"></path>
<path d="M17.013 26.027c-0.093-0.105-0.211-0.184-0.343-0.232-0.142-0.046-0.29-0.068-0.439-0.066h-0.9v4.239h0.604v-1.656h0.311c0.188 0.009 0.376-0.031 0.545-0.116 0.137-0.076 0.252-0.188 0.332-0.324 0.070-0.113 0.117-0.238 0.139-0.369 0.024-0.16 0.035-0.321 0.033-0.482 0.006-0.204-0.014-0.407-0.059-0.606-0.040-0.147-0.117-0.281-0.223-0.39zM16.701 27.319c-0.003 0.077-0.022 0.152-0.056 0.221-0.035 0.065-0.089 0.117-0.156 0.149-0.089 0.040-0.187 0.058-0.285 0.053h-0.275v-1.441h0.311c0.094-0.005 0.187 0.014 0.272 0.053 0.062 0.036 0.112 0.091 0.142 0.157 0.033 0.074 0.051 0.155 0.053 0.236 0 0.089 0 0.183 0 0.282s0.006 0.2 0 0.291h-0.006z"></path>
<path d="M19.874 25.73h-0.495l-0.934 4.239h0.604l0.177-0.911h0.823l0.177 0.911h0.604l-0.957-4.239zM19.317 28.481l0.297-1.537h0.011l0.296 1.537h-0.604z"></path>
<path d="M23.777 28.284h-0.011l-0.912-2.554h-0.581v4.239h0.604v-2.549h0.012l0.923 2.549h0.568v-4.239h-0.604v2.554z"></path>
<path d="M27.468 25.73l-0.486 1.685h-0.012l-0.486-1.685h-0.64l0.83 2.447v1.792h0.604v-1.792l0.83-2.447h-0.64z"></path>
<path d="M3.5 31.166h0.291v0.817h0.198v-0.817h0.29v-0.167h-0.778v0.167z"></path>
<path d="M5.947 30.998l-0.381 0.984h0.21l0.081-0.224h0.392l0.084 0.224h0.215l-0.391-0.984h-0.21zM5.916 31.593l0.134-0.365 0.134 0.365h-0.268z"></path>
<path d="M8.366 31.62h0.227v0.127c-0.066 0.053-0.149 0.082-0.234 0.083-0.040 0.002-0.079-0.005-0.116-0.021s-0.068-0.041-0.093-0.072c-0.052-0.075-0.078-0.165-0.073-0.257 0-0.219 0.095-0.329 0.283-0.329 0.050-0.005 0.099 0.008 0.14 0.037s0.070 0.071 0.082 0.12l0.195-0.038c-0.042-0.192-0.181-0.289-0.417-0.289-0.127-0.003-0.25 0.042-0.344 0.127-0.050 0.049-0.088 0.108-0.112 0.174s-0.034 0.135-0.029 0.205c-0.006 0.135 0.039 0.267 0.126 0.369 0.048 0.050 0.107 0.088 0.171 0.113s0.134 0.035 0.203 0.031c0.154 0.004 0.304-0.052 0.417-0.157v-0.388h-0.427v0.166z"></path>
<path d="M10.837 30.998h-0.199v0.984h0.69v-0.167h-0.49v-0.817z"></path>
<path d="M12.926 30.998h-0.199v0.984h0.199v-0.984z"></path>
<path d="M14.969 31.656l-0.403-0.657h-0.193v0.984h0.185v-0.643l0.395 0.643h0.198v-0.984h-0.182v0.657z"></path>
<path d="M16.815 31.549h0.49v-0.167h-0.49v-0.216h0.528v-0.167h-0.727v0.984h0.747v-0.167h-0.548v-0.266z"></path>
<path d="M21.292 31.387h-0.388v-0.388h-0.198v0.984h0.198v-0.43h0.388v0.43h0.198v-0.984h-0.198v0.388z"></path>
<path d="M23.149 31.549h0.492v-0.167h-0.492v-0.216h0.529v-0.167h-0.727v0.984h0.746v-0.167h-0.548v-0.266z"></path>
<path d="M25.668 31.549c0.171-0.027 0.258-0.117 0.258-0.274 0.005-0.042-0.001-0.084-0.018-0.123s-0.044-0.072-0.078-0.096c-0.089-0.045-0.189-0.065-0.288-0.058h-0.417v0.984h0.198v-0.412h0.039c0.042-0.003 0.084 0.005 0.123 0.022 0.029 0.018 0.053 0.043 0.070 0.072l0.215 0.313h0.237l-0.12-0.192c-0.053-0.095-0.128-0.176-0.218-0.236zM25.469 31.413h-0.146v-0.247h0.156c0.068-0.005 0.136 0.002 0.201 0.023 0.014 0.013 0.026 0.029 0.033 0.046s0.011 0.037 0.010 0.056c-0.001 0.019-0.006 0.038-0.015 0.055s-0.022 0.032-0.037 0.043c-0.065 0.020-0.133 0.028-0.201 0.023z"></path>
<path d="M27.567 31.549h0.49v-0.167h-0.49v-0.216h0.529v-0.167h-0.729v0.984h0.747v-0.167h-0.548v-0.266z"></path>
</symbol>
<symbol id="icon-client-3" viewBox="0 0 32 32">
<path d="M5.311 30.414c0.011 0 0.023 0.003 0.033 0.007s0.020 0.010 0.027 0.017l0.156 0.15c-0.121 0.121-0.271 0.217-0.44 0.284-0.198 0.072-0.409 0.106-0.624 0.102-0.2 0.004-0.401-0.029-0.586-0.095-0.168-0.061-0.318-0.152-0.441-0.268-0.126-0.12-0.223-0.262-0.285-0.414-0.069-0.171-0.102-0.351-0.1-0.532-0.003-0.182 0.034-0.363 0.107-0.534 0.069-0.154 0.171-0.296 0.303-0.414 0.134-0.117 0.294-0.209 0.47-0.27 0.193-0.065 0.397-0.097 0.604-0.095 0.192-0.004 0.383 0.025 0.561 0.087 0.155 0.058 0.297 0.139 0.421 0.24l-0.131 0.16c-0.009 0.011-0.021 0.021-0.033 0.029-0.015 0.009-0.034 0.013-0.053 0.012-0.021-0.001-0.040-0.008-0.056-0.017l-0.071-0.042-0.098-0.055c-0.042-0.020-0.086-0.038-0.131-0.053-0.058-0.018-0.118-0.032-0.178-0.042-0.077-0.012-0.154-0.018-0.232-0.017-0.149-0.002-0.296 0.023-0.434 0.072-0.128 0.045-0.245 0.114-0.34 0.2-0.098 0.092-0.172 0.201-0.221 0.319-0.055 0.136-0.082 0.278-0.080 0.422-0.002 0.146 0.024 0.291 0.080 0.428 0.048 0.118 0.121 0.225 0.217 0.318 0.089 0.087 0.2 0.153 0.325 0.197 0.128 0.046 0.264 0.069 0.403 0.068 0.080 0.001 0.16-0.004 0.238-0.013 0.129-0.014 0.252-0.053 0.361-0.114 0.055-0.031 0.106-0.067 0.154-0.105 0.020-0.017 0.046-0.026 0.074-0.027z"></path>
<path d="M9.827 29.663c0.003 0.181-0.033 0.36-0.105 0.528-0.064 0.153-0.164 0.293-0.295 0.41s-0.288 0.209-0.462 0.269c-0.383 0.127-0.806 0.127-1.189 0-0.173-0.061-0.329-0.153-0.459-0.27-0.13-0.12-0.232-0.26-0.297-0.414-0.141-0.343-0.141-0.716 0-1.059 0.067-0.154 0.168-0.296 0.297-0.416 0.131-0.113 0.287-0.201 0.459-0.26 0.382-0.129 0.807-0.129 1.189 0 0.174 0.061 0.33 0.153 0.461 0.27 0.129 0.118 0.229 0.257 0.296 0.409 0.072 0.17 0.108 0.35 0.105 0.532zM9.416 29.663c0.003-0.144-0.022-0.288-0.074-0.424-0.044-0.118-0.115-0.225-0.209-0.318-0.091-0.088-0.204-0.156-0.33-0.2-0.279-0.093-0.586-0.093-0.864 0-0.126 0.044-0.239 0.113-0.33 0.2-0.095 0.091-0.168 0.2-0.211 0.318-0.1 0.277-0.1 0.573 0 0.85 0.044 0.118 0.116 0.226 0.211 0.318 0.092 0.087 0.204 0.154 0.33 0.199 0.279 0.090 0.585 0.090 0.864 0 0.126-0.044 0.239-0.112 0.33-0.199 0.094-0.092 0.165-0.2 0.209-0.318 0.053-0.136 0.077-0.28 0.074-0.424z"></path>
<path d="M12.908 30.108l0.041 0.095c0.016-0.034 0.029-0.065 0.045-0.095 0.015-0.032 0.032-0.063 0.051-0.093l1-1.578c0.020-0.027 0.037-0.044 0.056-0.049 0.026-0.007 0.055-0.010 0.082-0.008h0.296v2.567h-0.35v-1.887c0-0.024 0-0.051 0-0.080-0.002-0.029-0.002-0.059 0-0.088l-1.005 1.6c-0.013 0.024-0.033 0.044-0.059 0.058s-0.056 0.022-0.086 0.022h-0.056c-0.030 0-0.060-0.007-0.086-0.021s-0.046-0.035-0.058-0.058l-1.034-1.61c0 0.030 0 0.061 0 0.091s0 0.057 0 0.082v1.887h-0.338v-2.562h0.296c0.028-0.002 0.056 0.002 0.082 0.008 0.024 0.010 0.043 0.028 0.055 0.049l1.020 1.579c0.020 0.029 0.037 0.060 0.051 0.091z"></path>
<path d="M16.668 29.981v0.961h-0.391v-2.563h0.872c0.165-0.003 0.328 0.016 0.487 0.056 0.126 0.031 0.244 0.086 0.344 0.16 0.087 0.070 0.153 0.155 0.196 0.251 0.046 0.104 0.069 0.216 0.067 0.328 0.002 0.112-0.023 0.224-0.072 0.328-0.047 0.098-0.12 0.186-0.211 0.257-0.101 0.077-0.218 0.135-0.346 0.169-0.152 0.042-0.312 0.062-0.472 0.059l-0.473-0.007zM16.668 29.705h0.473c0.103 0.001 0.205-0.012 0.303-0.039 0.081-0.024 0.155-0.061 0.219-0.11 0.058-0.047 0.104-0.105 0.133-0.169 0.032-0.069 0.048-0.142 0.047-0.216 0.005-0.072-0.008-0.142-0.040-0.209s-0.077-0.126-0.136-0.175c-0.15-0.102-0.337-0.151-0.526-0.137h-0.473v1.056z"></path>
<path d="M21.924 30.946h-0.309c-0.031 0.001-0.061-0.008-0.086-0.024-0.023-0.016-0.040-0.037-0.051-0.059l-0.265-0.62h-1.336l-0.276 0.62c-0.010 0.023-0.027 0.042-0.049 0.057-0.024 0.017-0.056 0.026-0.088 0.025h-0.309l1.173-2.567h0.407l1.189 2.567zM19.988 29.992h1.103l-0.465-1.045c-0.036-0.079-0.065-0.159-0.088-0.241l-0.045 0.135c-0.013 0.040-0.029 0.078-0.043 0.109l-0.461 1.043z"></path>
<path d="M23.613 28.391c0.024 0.011 0.043 0.027 0.058 0.046l1.711 1.935c0-0.030 0-0.061 0-0.090s0-0.057 0-0.085v-1.817h0.35v2.567h-0.196c-0.028 0.001-0.056-0.005-0.080-0.015-0.024-0.012-0.045-0.028-0.063-0.047l-1.709-1.933c0.002 0.029 0.002 0.059 0 0.088 0 0.029 0 0.055 0 0.078v1.83h-0.35v-2.567h0.207c0.024-0.001 0.048 0.004 0.071 0.012z"></path>
<path d="M28.614 29.925v1.019h-0.391v-1.019l-1.081-1.545h0.35c0.030-0.002 0.060 0.007 0.084 0.022 0.022 0.017 0.040 0.036 0.053 0.057l0.677 0.997c0.027 0.042 0.051 0.082 0.071 0.119s0.035 0.073 0.049 0.109l0.051-0.11c0.019-0.040 0.041-0.079 0.067-0.118l0.666-1.004c0.014-0.020 0.031-0.039 0.051-0.055 0.024-0.018 0.054-0.026 0.084-0.025h0.354l-1.083 1.553z"></path>
<path d="M12.715 24.072c0.17 0.019 0.343 0.034 0.516 0.048 2.638-1.025 4.87-2.704 6.416-4.824s2.339-4.591 2.279-7.102l-2.907-2.526c0.591 2.673 0.314 5.436-0.799 7.98s-3.019 4.769-5.505 6.425z"></path>
<path d="M11.677 23.954l0.078 0.013c2.656-1.651 4.681-3.956 5.813-6.616s1.32-5.557 0.537-8.311l-4.141-3.598c1.675 2.957 2.349 6.267 1.944 9.544s-1.872 6.387-4.232 8.968z"></path>
<path d="M25.72 15.159c-0.703 2.759-2.412 5.246-4.872 7.094-0.718 0.542-1.494 1.026-2.315 1.444 2.003-0.512 3.845-1.416 5.382-2.644s2.729-2.745 3.485-4.437l-1.679-1.458z"></path>
<path d="M25.062 14.752l-2.392-2.077c-0.046 2.369-0.821 4.683-2.245 6.704s-3.445 3.672-5.851 4.785h0.011c0.536 0 1.072-0.028 1.605-0.083 2.249-0.798 4.237-2.067 5.785-3.695s2.608-3.562 3.085-5.633z"></path>
<path d="M12.023 3.925l-2.853-2.482c-2.55 0.856-4.744 2.361-6.293 4.318s-2.382 4.275-2.391 6.65v0c0.009 2.625 1.026 5.172 2.889 7.238s4.466 3.533 7.397 4.169c2.616-2.769 4.148-6.192 4.373-9.769s-0.87-7.124-3.124-10.124z"></path>
<path d="M31.652 14.37c-0.010-3.114-1.439-6.098-3.973-8.299s-5.969-3.443-9.553-3.452c-1.656-0.002-3.298 0.264-4.843 0.783l17.465 15.175c0.598-1.341 0.904-2.767 0.904-4.206z"></path>
</symbol>
<symbol id="icon-client-4" viewBox="0 0 32 32">
<path d="M4.931 13.038h-0.001c-0.899 0-1.629 0.648-1.629 1.447v0.001c0 0.8 0.729 1.447 1.629 1.447h0.001c0.899 0 1.629-0.648 1.629-1.447v-0.001c0-0.8-0.729-1.447-1.629-1.447z"></path>
<path d="M16.952 12.575c-0.002-1.11-0.5-2.175-1.383-2.96s-2.081-1.227-3.33-1.23v0c-1.249 0.002-2.448 0.444-3.331 1.229s-1.381 1.85-1.384 2.96v6.122c0 0 9.427-0.933 9.428-6.121v-0.001z"></path>
<path d="M0 20.707c0.002 0.772 0.349 1.513 0.963 2.059s1.447 0.854 2.317 0.857c0.869-0.002 1.702-0.31 2.316-0.856s0.961-1.286 0.963-2.059v-4.26c0 0-6.56 0.65-6.56 4.259zM3.28 21.471c-0.17 0-0.336-0.045-0.477-0.128s-0.252-0.203-0.317-0.343c-0.065-0.139-0.082-0.293-0.049-0.441s0.115-0.284 0.235-0.391 0.273-0.179 0.44-0.209c0.166-0.030 0.339-0.014 0.496 0.043s0.291 0.156 0.385 0.281c0.095 0.126 0.145 0.273 0.145 0.424 0 0.1-0.022 0.2-0.064 0.293s-0.106 0.177-0.186 0.249c-0.080 0.071-0.175 0.128-0.279 0.166s-0.216 0.059-0.329 0.059v-0.003z"></path>
<path d="M9.909 21.050h-0.633v0.654h-0.33v-1.6h1.042v0.267h-0.712v0.413h0.633v0.266zM11.493 20.94c0 0.158-0.028 0.295-0.084 0.415s-0.135 0.21-0.24 0.275c-0.103 0.064-0.222 0.096-0.356 0.096-0.132 0-0.251-0.032-0.355-0.096s-0.185-0.155-0.242-0.273c-0.057-0.119-0.086-0.255-0.087-0.409v-0.079c0-0.158 0.028-0.296 0.085-0.416s0.137-0.212 0.241-0.276c0.104-0.064 0.223-0.096 0.356-0.096s0.252 0.032 0.355 0.096c0.104 0.064 0.184 0.156 0.241 0.276 0.057 0.119 0.086 0.257 0.086 0.414v0.071zM11.16 20.868c0-0.168-0.030-0.295-0.090-0.383s-0.146-0.131-0.257-0.131c-0.111 0-0.196 0.043-0.256 0.129s-0.091 0.212-0.091 0.378v0.078c0 0.163 0.030 0.29 0.090 0.38s0.147 0.135 0.259 0.135c0.111 0 0.195-0.043 0.255-0.129s0.090-0.214 0.090-0.38v-0.078zM12.563 21.284c0-0.062-0.022-0.11-0.066-0.143s-0.123-0.069-0.237-0.105c-0.114-0.037-0.205-0.074-0.271-0.11-0.182-0.098-0.273-0.23-0.273-0.397 0-0.087 0.024-0.163 0.072-0.231s0.119-0.121 0.21-0.16c0.092-0.038 0.194-0.057 0.308-0.057s0.216 0.021 0.306 0.063c0.089 0.041 0.159 0.099 0.208 0.175s0.075 0.161 0.075 0.257h-0.33c0-0.073-0.023-0.13-0.069-0.17s-0.111-0.062-0.194-0.062c-0.081 0-0.143 0.017-0.188 0.052s-0.067 0.078-0.067 0.134c0 0.052 0.026 0.096 0.078 0.131s0.13 0.068 0.232 0.099c0.188 0.057 0.324 0.127 0.41 0.21s0.129 0.188 0.129 0.312c0 0.138-0.052 0.247-0.157 0.326-0.105 0.078-0.246 0.118-0.423 0.118-0.123 0-0.235-0.022-0.336-0.067s-0.178-0.107-0.232-0.186c-0.053-0.078-0.079-0.169-0.079-0.273h0.331c0 0.177 0.105 0.265 0.317 0.265 0.078 0 0.14-0.016 0.184-0.047s0.066-0.077 0.066-0.134zM14.322 20.371h-0.49v1.333h-0.33v-1.333h-0.483v-0.267h1.303v0.267zM15.474 21.011h-0.633v0.429h0.743v0.265h-1.073v-1.6h1.070v0.267h-0.74v0.382h0.633v0.258zM16.37 21.118h-0.262v0.586h-0.33v-1.6h0.595c0.189 0 0.335 0.042 0.437 0.127s0.154 0.203 0.154 0.357c0 0.109-0.024 0.2-0.071 0.274s-0.118 0.13-0.214 0.174l0.346 0.654v0.015h-0.354l-0.3-0.586zM16.107 20.851h0.266c0.083 0 0.147-0.021 0.192-0.063s0.068-0.101 0.068-0.175c0-0.075-0.022-0.135-0.065-0.178-0.042-0.043-0.108-0.065-0.197-0.065h-0.265v0.48zM18.105 21.14v0.564h-0.33v-1.6h0.624c0.12 0 0.225 0.022 0.317 0.066s0.162 0.106 0.211 0.188c0.049 0.081 0.074 0.172 0.074 0.276 0 0.157-0.054 0.281-0.161 0.371s-0.256 0.135-0.445 0.135h-0.289zM18.105 20.873h0.294c0.087 0 0.154-0.021 0.199-0.062s0.069-0.099 0.069-0.176c0-0.078-0.023-0.142-0.069-0.19s-0.11-0.073-0.191-0.075h-0.302v0.502zM20.191 21.011h-0.633v0.429h0.743v0.265h-1.073v-1.6h1.070v0.267h-0.74v0.382h0.633v0.258zM21.72 20.371h-0.49v1.333h-0.33v-1.333h-0.483v-0.267h1.303v0.267zM22.872 21.011h-0.633v0.429h0.743v0.265h-1.072v-1.6h1.070v0.267h-0.74v0.382h0.633v0.258zM23.767 21.118h-0.262v0.586h-0.33v-1.6h0.595c0.189 0 0.335 0.042 0.437 0.127s0.154 0.203 0.154 0.357c0 0.109-0.024 0.2-0.071 0.274s-0.118 0.13-0.214 0.174l0.346 0.654v0.015h-0.354l-0.3-0.586zM23.505 20.851h0.266c0.083 0 0.147-0.021 0.192-0.063s0.068-0.101 0.068-0.175c0-0.075-0.022-0.135-0.065-0.178-0.042-0.043-0.108-0.065-0.197-0.065h-0.265v0.48zM25.442 21.284c0-0.062-0.022-0.11-0.066-0.143s-0.123-0.069-0.237-0.105c-0.114-0.037-0.205-0.074-0.271-0.11-0.182-0.098-0.273-0.23-0.273-0.397 0-0.087 0.024-0.163 0.072-0.231s0.119-0.121 0.21-0.16c0.092-0.038 0.194-0.057 0.308-0.057s0.216 0.021 0.306 0.063c0.090 0.041 0.159 0.099 0.208 0.175s0.075 0.161 0.075 0.257h-0.33c0-0.073-0.023-0.13-0.069-0.17s-0.111-0.062-0.194-0.062c-0.081 0-0.143 0.017-0.188 0.052s-0.067 0.078-0.067 0.134c0 0.052 0.026 0.096 0.078 0.131 0.053 0.035 0.13 0.068 0.232 0.099 0.188 0.057 0.324 0.127 0.41 0.21s0.128 0.188 0.128 0.312c0 0.138-0.052 0.247-0.157 0.326-0.105 0.078-0.246 0.118-0.423 0.118-0.123 0-0.235-0.022-0.336-0.067s-0.178-0.107-0.232-0.186c-0.053-0.078-0.079-0.169-0.079-0.273h0.331c0 0.177 0.105 0.265 0.317 0.265 0.078 0 0.139-0.016 0.184-0.047s0.066-0.077 0.066-0.134z"></path>
</symbol>
<symbol id="icon-client-5" viewBox="0 0 32 32">
<path d="M2.41 23.719c0.124 0.14 0.189 0.316 0.186 0.495 0.006 0.118-0.016 0.234-0.066 0.342s-0.126 0.205-0.222 0.283c-0.24 0.166-0.537 0.247-0.837 0.228h-1.471v-3.137h1.442c0.284-0.017 0.566 0.057 0.798 0.208 0.093 0.071 0.167 0.162 0.215 0.263s0.071 0.213 0.064 0.324c0.008 0.173-0.051 0.343-0.167 0.48-0.112 0.125-0.266 0.211-0.438 0.245 0.195 0.033 0.371 0.128 0.497 0.268zM0.685 23.246h0.616c0.14 0.010 0.279-0.028 0.391-0.104 0.046-0.039 0.083-0.086 0.105-0.139s0.032-0.11 0.027-0.167c0.004-0.057-0.005-0.114-0.028-0.167s-0.058-0.1-0.103-0.14c-0.116-0.079-0.26-0.116-0.403-0.106h-0.606v0.823zM1.753 24.449c0.049-0.039 0.089-0.089 0.114-0.144s0.036-0.115 0.032-0.175c0.004-0.060-0.007-0.121-0.034-0.177s-0.066-0.106-0.115-0.145c-0.121-0.082-0.269-0.122-0.418-0.113h-0.646v0.863h0.654c0.147 0.008 0.293-0.030 0.414-0.109z"></path>
<path d="M5.356 25.068l-0.801-1.226h-0.301v1.226h-0.69v-3.137h1.305c0.329-0.021 0.654 0.074 0.909 0.266 0.182 0.17 0.292 0.394 0.31 0.633s-0.058 0.474-0.214 0.665c-0.161 0.169-0.381 0.281-0.623 0.319l0.854 1.253h-0.75zM4.253 23.414h0.564c0.391 0 0.587-0.159 0.587-0.475 0.004-0.065-0.007-0.13-0.031-0.19s-0.063-0.116-0.112-0.162c-0.124-0.095-0.283-0.14-0.444-0.127h-0.571l0.007 0.955z"></path>
<path d="M9.125 24.437h-1.375l-0.243 0.631h-0.723l1.262-3.102h0.781l1.257 3.102h-0.723l-0.237-0.631zM8.941 23.961l-0.502-1.324-0.502 1.324h1.004z"></path>
<path d="M13.843 25.068h-0.685l-1.534-2.134v2.134h-0.683v-3.137h0.683l1.534 2.145v-2.145h0.685v3.137z"></path>
<path d="M17.75 24.317c-0.141 0.237-0.357 0.429-0.619 0.553-0.298 0.138-0.629 0.205-0.962 0.198h-1.218v-3.137h1.218c0.333-0.008 0.663 0.058 0.962 0.193 0.262 0.121 0.478 0.312 0.619 0.547 0.141 0.255 0.214 0.537 0.214 0.823s-0.074 0.568-0.214 0.823zM16.967 24.242c0.196-0.208 0.303-0.474 0.303-0.749s-0.107-0.54-0.303-0.749c-0.236-0.189-0.544-0.284-0.857-0.266h-0.476v2.031h0.476c0.313 0.018 0.621-0.078 0.857-0.266z"></path>
<path d="M9.554 4.481c0 0 8.836 3.054 8.648 7.474v7.475c0 0-8.829-3.056-8.645-7.475l-0.004-7.474z"></path>
<path d="M26.074 17.681c1.668-1.052 3.599-1.703 5.614-1.894v-2.34c-2.322 0.819-4.291 2.305-5.614 4.234z"></path>
<path d="M25.072 18.386c1.366-2.518 3.734-4.461 6.617-5.43v-6.743c0 0-12.583 4.351-12.317 10.645v10.643c0 0 0.56-0.195 1.443-0.56 0-0.34 0-0.683 0.040-1.028 0.26-2.922 1.778-5.63 4.218-7.527z"></path>
<path d="M23.874 22.34c0.066-0.738 0.214-1.468 0.441-2.179-1.52 1.639-2.439 3.673-2.631 5.816-0.019 0.202-0.028 0.405-0.034 0.613 0.714-0.314 1.546-0.706 2.42-1.168-0.223-1.014-0.289-2.051-0.196-3.082z"></path>
<path d="M24.375 22.378c-0.084 0.932-0.031 1.871 0.156 2.791 3.438-1.884 7.301-4.794 7.152-8.311v-0.307c-2.457 0.252-4.755 1.235-6.541 2.798-0.418 0.969-0.676 1.99-0.767 3.028z"></path>
</symbol>
<symbol id="icon-client-6" viewBox="0 0 32 32">
<path d="M16.107 15.629c-0.15-0.2-0.223-0.437-0.205-0.675v-0.979c0-0.3 0.068-0.528 0.204-0.684s0.37-0.234 0.702-0.233c0.311 0 0.533 0.066 0.663 0.199 0.143 0.17 0.212 0.377 0.196 0.586v0.23h-0.557v-0.233c0.002-0.076-0.003-0.152-0.016-0.228-0.008-0.052-0.036-0.099-0.080-0.136-0.057-0.039-0.129-0.058-0.202-0.053-0.076-0.005-0.152 0.015-0.212 0.056-0.049 0.040-0.081 0.092-0.092 0.149-0.016 0.080-0.023 0.161-0.022 0.242v1.188c-0.009 0.115 0.016 0.229 0.072 0.334 0.028 0.035 0.066 0.063 0.111 0.081s0.095 0.024 0.144 0.019c0.071 0.005 0.142-0.014 0.197-0.054 0.045-0.039 0.075-0.090 0.083-0.144 0.013-0.079 0.019-0.159 0.017-0.238v-0.241h0.557v0.22c0.016 0.218-0.052 0.434-0.192 0.616-0.128 0.146-0.346 0.218-0.667 0.218s-0.563-0.078-0.7-0.239z"></path>
<path d="M18.428 15.639c-0.141-0.152-0.211-0.374-0.211-0.669v-1.030c0-0.291 0.070-0.511 0.211-0.661s0.376-0.224 0.706-0.223c0.328 0 0.562 0.075 0.703 0.223s0.212 0.37 0.212 0.661v1.030c0 0.291-0.072 0.514-0.214 0.667s-0.376 0.23-0.7 0.23c-0.324 0-0.564-0.078-0.706-0.229zM19.393 15.392c0.051-0.096 0.074-0.2 0.067-0.305v-1.261c0.007-0.103-0.016-0.205-0.066-0.299-0.028-0.036-0.068-0.064-0.114-0.082s-0.097-0.024-0.147-0.018c-0.050-0.006-0.101 0-0.147 0.018s-0.086 0.046-0.115 0.082c-0.051 0.093-0.074 0.196-0.067 0.299v1.267c-0.007 0.105 0.016 0.21 0.067 0.305 0.032 0.032 0.073 0.058 0.117 0.075s0.094 0.027 0.143 0.027c0.049 0 0.098-0.009 0.143-0.027s0.085-0.043 0.117-0.075v-0.006z"></path>
<path d="M20.719 13.087h0.6l0.451 1.9 0.461-1.9h0.584l0.059 2.743h-0.432l-0.046-1.907-0.445 1.907h-0.346l-0.461-1.913-0.043 1.913h-0.436l0.054-2.743z"></path>
<path d="M23.547 13.087h0.935c0.538 0 0.808 0.26 0.808 0.779 0 0.497-0.283 0.746-0.85 0.745h-0.319v1.219h-0.577l0.003-2.743zM24.345 14.26c0.057 0.006 0.115 0.002 0.17-0.013s0.105-0.040 0.148-0.074c0.066-0.093 0.096-0.202 0.083-0.31 0.003-0.084-0.006-0.167-0.028-0.249-0.008-0.027-0.022-0.053-0.043-0.075s-0.044-0.041-0.073-0.055c-0.080-0.033-0.169-0.048-0.257-0.044h-0.224v0.82h0.224z"></path>
<path d="M26.121 13.087h0.619l0.636 2.743h-0.538l-0.126-0.632h-0.553l-0.129 0.632h-0.546l0.636-2.743zM26.651 14.88l-0.216-1.152-0.216 1.152h0.431z"></path>
<path d="M27.89 13.087h0.404l0.773 1.565v-1.565h0.479v2.743h-0.384l-0.778-1.633v1.633h-0.495l0.001-2.743z"></path>
<path d="M30.667 14.784l-0.643-1.694h0.541l0.392 1.088 0.368-1.088h0.53l-0.635 1.694v1.046h-0.554v-1.046z"></path>
<path d="M16.998 17.030v0.143h-0.471v1.115h-0.197v-1.115h-0.473v-0.143h1.141z"></path>
<path d="M18.474 18.288h-0.152c-0.015 0.001-0.031-0.003-0.043-0.012-0.011-0.007-0.021-0.017-0.025-0.029l-0.136-0.299h-0.653l-0.136 0.299c-0.004 0.012-0.011 0.024-0.021 0.034-0.012 0.008-0.027 0.012-0.043 0.012h-0.152l0.577-1.258h0.201l0.584 1.253zM17.518 17.821h0.544l-0.231-0.512c-0.017-0.039-0.032-0.078-0.043-0.118-0.008 0.024-0.015 0.047-0.022 0.067l-0.021 0.053-0.228 0.511z"></path>
<path d="M19.468 18.165c0.036 0.001 0.072 0.001 0.108 0 0.031-0.003 0.062-0.008 0.092-0.015 0.028-0.006 0.056-0.014 0.083-0.023 0.025-0.009 0.051-0.020 0.077-0.031v-0.283h-0.231c-0.006 0-0.011-0-0.017-0.002s-0.010-0.004-0.014-0.008c-0.004-0.003-0.007-0.006-0.009-0.011s-0.003-0.008-0.003-0.012v-0.096h0.448v0.482c-0.037 0.022-0.075 0.043-0.116 0.060s-0.084 0.032-0.128 0.043c-0.047 0.012-0.096 0.021-0.144 0.026-0.056 0.005-0.112 0.008-0.169 0.008-0.099 0.001-0.198-0.015-0.291-0.047-0.086-0.030-0.165-0.075-0.231-0.131-0.064-0.057-0.115-0.125-0.149-0.199-0.036-0.084-0.054-0.172-0.053-0.261-0.001-0.090 0.016-0.179 0.052-0.263 0.033-0.075 0.084-0.142 0.149-0.199s0.144-0.101 0.231-0.13c0.099-0.032 0.203-0.048 0.309-0.047 0.053 0 0.107 0.004 0.16 0.011 0.047 0.007 0.093 0.017 0.138 0.032 0.040 0.013 0.079 0.030 0.116 0.050 0.035 0.020 0.069 0.042 0.1 0.066l-0.055 0.078c-0.004 0.007-0.011 0.013-0.019 0.017s-0.017 0.007-0.026 0.007c-0.013-0-0.025-0.004-0.036-0.010-0.017-0.008-0.036-0.018-0.056-0.030-0.024-0.013-0.051-0.025-0.077-0.034-0.034-0.012-0.070-0.021-0.106-0.028-0.048-0.008-0.097-0.011-0.147-0.011-0.076-0.001-0.152 0.011-0.223 0.035-0.064 0.022-0.122 0.056-0.17 0.1-0.048 0.045-0.085 0.098-0.107 0.157-0.052 0.136-0.052 0.283 0 0.419 0.025 0.059 0.064 0.113 0.116 0.159 0.047 0.043 0.105 0.077 0.169 0.1 0.074 0.022 0.151 0.030 0.228 0.025z"></path>
<path d="M21.307 18.144h0.63v0.143h-0.822v-1.258h0.197l-0.005 1.115z"></path>
<path d="M22.593 18.288h-0.197v-1.258h0.197v1.258z"></path>
<path d="M23.327 17.035c0.012 0.006 0.022 0.013 0.030 0.023l0.843 0.949c-0.001-0.015-0.001-0.030 0-0.045s0-0.028 0-0.041v-0.896h0.172v1.263h-0.099c-0.015 0.001-0.030-0.001-0.043-0.007s-0.022-0.014-0.031-0.024l-0.843-0.948c0 0.015 0 0.029 0 0.043s0 0.027 0 0.039v0.896h-0.165v-1.258h0.103c0.011 0 0.022 0.002 0.032 0.006z"></path>
<path d="M25.824 17.030v0.139h-0.699v0.416h0.566v0.133h-0.566v0.429h0.699v0.139h-0.902v-1.255h0.902z"></path>
<path d="M5.15 9.26l8.761 2.148v7.526l-8.761-2.146v-7.527zM4.587 8.618v8.534l9.884 2.423v-8.533l-9.884-2.424z"></path>
<path d="M9.885 23.537l-9.885-2.426v-8.533l9.885 2.424v8.534z"></path>
<path d="M4.751 9.163l8.647 2.121-3.677 3.176-8.648-2.122 3.679-3.175zM4.587 8.618l-4.587 3.96 9.885 2.424 4.586-3.96-9.884-2.424z"></path>
<path d="M10.441 23.057l4.030-3.48-4.030-0.989v4.47z"></path>
</symbol>
<symbol id="icon-clock" viewBox="0 0 32 32">
<path fill="#212121" style="fill: var(--color1, #212121)" d="M31.296 15.301c-0.001-8.452-6.855-15.303-15.308-15.301s-15.303 6.855-15.301 15.308c0.002 6.788 4.422 12.543 10.541 14.545l0.108 0.031c0.061 0.019 0.123 0.029 0.187 0.029 0.12 0 0.238-0.032 0.342-0.094 0.135-0.080 0.236-0.207 0.283-0.357l3.865-12.25c1.054-0.004 1.906-0.859 1.906-1.913 0-1.056-0.856-1.913-1.913-1.913-0.303 0-0.59 0.071-0.845 0.196l0.011-0.005-5.106-5.107c-0.114-0.11-0.271-0.179-0.443-0.179-0.352 0-0.638 0.286-0.638 0.638 0 0.172 0.068 0.328 0.179 0.443l-0-0 5.103 5.109c-0.121 0.241-0.191 0.525-0.191 0.826 0 0.602 0.283 1.137 0.723 1.48l0.004 0.003-3.682 11.673c-7.278-2.681-11.004-10.754-8.324-18.032s10.754-11.004 18.032-8.323c7.278 2.681 11.004 10.754 8.323 18.032-1.345 3.581-4.003 6.406-7.374 7.938l-0.088 0.036-0.398-1.874c-0.063-0.291-0.318-0.506-0.624-0.506-0.164 0-0.313 0.062-0.426 0.163l0.001-0.001-3.837 3.426c-0.132 0.117-0.214 0.287-0.214 0.477 0 0.283 0.185 0.524 0.441 0.606l0.005 0.001 4.899 1.563c0.058 0.020 0.126 0.031 0.196 0.031 0.352 0 0.637-0.285 0.637-0.637 0-0.047-0.005-0.093-0.015-0.138l0.001 0.004-0.391-1.839c5.528-2.374 9.329-7.772 9.329-14.057 0-0.011 0-0.023-0-0.034v0.002zM15.992 14.664c0.352 0 0.638 0.286 0.638 0.638s-0.285 0.638-0.638 0.638v0c-0.352 0-0.638-0.286-0.638-0.638s0.286-0.638 0.638-0.638v0zM18.092 29.528l2.184-1.948 0.603 2.84-2.787-0.892z"></path>
<path fill="#2196f3" style="fill: var(--color2, #2196f3)" d="M15.354 3.185v1.275c0 0.352 0.286 0.638 0.638 0.638s0.638-0.285 0.638-0.638v0-1.275c0-0.352-0.285-0.638-0.638-0.638s-0.638 0.285-0.638 0.638v0zM3.876 14.664c-0.352 0-0.638 0.286-0.638 0.638s0.285 0.638 0.638 0.638h1.275c0.352 0 0.638-0.286 0.638-0.638s-0.285-0.638-0.638-0.638h-1.275zM28.108 15.939c0.352 0 0.638-0.286 0.638-0.638s-0.285-0.638-0.638-0.638h-1.275c-0.352 0-0.638 0.286-0.638 0.638s0.285 0.638 0.638 0.638h1.275z"></path>
</symbol>
<symbol id="icon-copy" viewBox="0 0 32 32">
<path d="M20 8v-8h-14l-6 6v18h12v8h20v-24h-12zM6 2.828v3.172h-3.172l3.172-3.172zM2 22v-14h6v-6h10v6l-6 6v8h-10zM18 10.828v3.172h-3.172l3.172-3.172zM30 30h-16v-14h6v-6h10v20z"></path>
</symbol>
<symbol id="icon-diagram" viewBox="0 0 32 32">
<path fill="#2196f3" style="fill: var(--color2, #2196f3)" d="M14.926 14.965h1.066v4.798h-1.066v-4.798zM19.19 17.097h1.066v2.665h-1.066v-2.665zM10.661 18.696h1.066v1.066h-1.066v-1.066zM7.463 18.163h1.066v1.599h-1.066v-1.599z"></path>
<path fill="#212121" style="fill: var(--color1, #212121)" d="M1.599 28.291h25.586c0 0 0 0 0 0 0.883 0 1.599-0.716 1.599-1.599v0-2.132c0-0.883-0.716-1.599-1.599-1.599v0h-0.533v-13.294l3.028-2.868c0.207 0.104 0.452 0.166 0.711 0.166 0.888 0 1.608-0.72 1.608-1.608s-0.72-1.608-1.608-1.608c-0.888 0-1.608 0.72-1.608 1.608 0 0.247 0.056 0.481 0.155 0.69l-0.004-0.010-2.281 2.162v-1.23c0-0.883-0.716-1.599-1.599-1.599v0h-21.323c-0.883 0-1.599 0.716-1.599 1.599v0 15.992h-0.533c-0.883 0-1.599 0.716-1.599 1.599v0 2.132c0 0.883 0.716 1.599 1.599 1.599v0zM30.384 4.837c0.294 0 0.533 0.239 0.533 0.533s-0.239 0.533-0.533 0.533v0c-0.294 0-0.533-0.239-0.533-0.533s0.239-0.533 0.533-0.533v0zM3.198 6.969c0-0.294 0.239-0.533 0.533-0.533h21.323c0.294 0 0.533 0.239 0.533 0.533v2.239l-1.066 1.013v-2.185c0-0.295-0.239-0.534-0.534-0.534h-19.189c-0.294 0-0.534 0.239-0.534 0.533v13.327c0 0.294 0.239 0.533 0.534 0.533h19.189c0.295 0 0.534-0.239 0.534-0.533v-9.675l1.066-1.010v12.283h-22.389v-15.991zM7.996 13.899c-0.001 0-0.003 0-0.005 0-0.883 0-1.599 0.716-1.599 1.599s0.716 1.599 1.599 1.599c0.432 0 0.824-0.172 1.112-0.45l-0 0 1.853 0.93c0.215 0.107 0.476 0.057 0.636-0.122l3.939-4.432 3.872 2.902c0.208 0.155 0.498 0.139 0.686-0.039l3.365-3.188v8.131h-18.123v-12.261h18.123v2.661l-3.771 3.572-3.904-2.927c-0.088-0.067-0.2-0.107-0.32-0.107-0.158 0-0.3 0.069-0.398 0.178l-0 0.001-3.993 4.493-1.493-0.746c0.011-0.064 0.017-0.128 0.020-0.193 0-0.883-0.716-1.599-1.599-1.599v0zM8.529 15.498c0 0.294-0.239 0.533-0.533 0.533s-0.533-0.239-0.533-0.533v0c0-0.294 0.239-0.533 0.533-0.533s0.533 0.239 0.533 0.533v0zM11.727 24.026h5.33v0.533c0 0.294-0.238 0.533-0.533 0.533h-4.265c-0.294 0-0.533-0.239-0.533-0.533v0-0.533zM1.067 24.56c0-0.294 0.238-0.533 0.533-0.533h9.062v0.533c0 0.883 0.716 1.599 1.599 1.599v0h4.265c0.883 0 1.599-0.716 1.599-1.599v0-0.533h9.062c0.294 0 0.533 0.239 0.533 0.533v2.132c0 0.294-0.239 0.533-0.533 0.533h-25.586c-0 0-0 0-0 0-0.294 0-0.533-0.239-0.533-0.533 0 0 0 0 0 0v0-2.132z"></path>
</symbol>
<symbol id="icon-facebook" viewBox="0 0 32 32">
<path d="M21.329 5.313h2.921v-5.088c-0.504-0.069-2.237-0.225-4.256-0.225-4.212 0-7.097 2.649-7.097 7.519v4.481h-4.648v5.688h4.648v14.312h5.699v-14.311h4.46l0.708-5.688h-5.169v-3.919c0.001-1.644 0.444-2.769 2.735-2.769v0z"></path>
</symbol>
<symbol id="icon-instagram" viewBox="0 0 32 32">
<path d="M31.969 9.408c-0.075-1.7-0.35-2.869-0.744-3.882-0.406-1.075-1.032-2.038-1.851-2.838-0.8-0.813-1.769-1.444-2.832-1.844-1.019-0.394-2.182-0.669-3.882-0.744-1.713-0.081-2.257-0.1-6.601-0.1s-4.888 0.019-6.595 0.094c-1.7 0.075-2.869 0.35-3.882 0.744-1.075 0.406-2.038 1.031-2.838 1.85-0.813 0.8-1.444 1.769-1.844 2.832-0.394 1.019-0.669 2.182-0.744 3.882-0.081 1.713-0.1 2.257-0.1 6.601s0.019 4.888 0.094 6.595c0.075 1.7 0.35 2.869 0.744 3.882 0.406 1.075 1.038 2.038 1.85 2.838 0.8 0.813 1.769 1.444 2.832 1.844 1.019 0.394 2.182 0.669 3.882 0.744 1.706 0.075 2.25 0.094 6.595 0.094s4.888-0.019 6.595-0.094c1.7-0.075 2.869-0.35 3.882-0.744 2.151-0.832 3.851-2.532 4.682-4.682 0.394-1.019 0.669-2.182 0.744-3.882 0.075-1.707 0.094-2.251 0.094-6.595s-0.006-4.888-0.081-6.595zM29.087 22.473c-0.069 1.563-0.331 2.407-0.55 2.969-0.538 1.394-1.644 2.5-3.038 3.038-0.563 0.219-1.413 0.481-2.969 0.55-1.688 0.075-2.194 0.094-6.464 0.094s-4.782-0.019-6.464-0.094c-1.563-0.069-2.407-0.331-2.969-0.55-0.694-0.256-1.325-0.663-1.838-1.194-0.531-0.519-0.938-1.144-1.194-1.838-0.219-0.563-0.481-1.413-0.55-2.969-0.075-1.688-0.094-2.194-0.094-6.464s0.019-4.782 0.094-6.464c0.069-1.563 0.331-2.407 0.55-2.969 0.256-0.694 0.663-1.325 1.2-1.838 0.519-0.531 1.144-0.938 1.838-1.194 0.563-0.219 1.413-0.481 2.969-0.55 1.688-0.075 2.194-0.094 6.464-0.094 4.276 0 4.782 0.019 6.464 0.094 1.563 0.069 2.407 0.331 2.969 0.55 0.694 0.256 1.325 0.662 1.838 1.194 0.531 0.519 0.938 1.144 1.194 1.838 0.219 0.563 0.481 1.413 0.55 2.969 0.075 1.688 0.094 2.194 0.094 6.464s-0.019 4.77-0.094 6.458z"></path>
<path d="M16.059 7.783c-4.538 0-8.22 3.682-8.22 8.22s3.682 8.22 8.22 8.22c4.539 0 8.22-3.682 8.22-8.22s-3.682-8.22-8.22-8.22zM16.059 21.335c-2.944 0-5.332-2.388-5.332-5.332s2.388-5.332 5.332-5.332c2.944 0 5.332 2.388 5.332 5.332s-2.388 5.332-5.332 5.332z"></path>
<path d="M26.524 7.458c0 1.060-0.859 1.919-1.919 1.919s-1.919-0.859-1.919-1.919c0-1.060 0.859-1.919 1.919-1.919s1.919 0.859 1.919 1.919z"></path>
</symbol>
<symbol id="icon-linkedin" viewBox="0 0 32 32">
<path d="M31.992 32v-0.001h0.008v-11.736c0-5.741-1.236-10.164-7.948-10.164-3.227 0-5.392 1.771-6.276 3.449h-0.093v-2.913h-6.364v21.364h6.627v-10.579c0-2.785 0.528-5.479 3.977-5.479 3.399 0 3.449 3.179 3.449 5.657v10.401h6.62z"></path>
<path d="M0.528 10.636h6.635v21.364h-6.635v-21.364z"></path>
<path d="M3.843 0c-2.121 0-3.843 1.721-3.843 3.843s1.721 3.879 3.843 3.879c2.121 0 3.843-1.757 3.843-3.879-0.001-2.121-1.723-3.843-3.843-3.843v0z"></path>
</symbol>
<symbol id="icon-mail" viewBox="0 0 32 32">
<path d="M28.775 4.093h-25.799c-1.642 0-2.977 1.335-2.977 2.977v17.86c0 1.642 1.335 2.977 2.977 2.977h25.799c1.642 0 2.977-1.335 2.977-2.977v-17.86c0-1.642-1.335-2.977-2.977-2.977zM28.775 6.078c0.135 0 0.263 0.028 0.38 0.077l-13.279 11.51-13.279-11.51c0.112-0.048 0.243-0.077 0.38-0.077h25.799zM28.775 25.922h-25.799c-0.548-0-0.992-0.444-0.992-0.992v-16.679l13.241 11.476c0.173 0.151 0.401 0.242 0.65 0.242s0.477-0.092 0.652-0.244l-0.001 0.001 13.241-11.476v16.679c0 0.548-0.445 0.992-0.992 0.992z"></path>
</symbol>
<symbol id="icon-phone" viewBox="0 0 32 32">
<path d="M23 0h-14c-1.654 0-3 1.346-3 3v26c0 1.654 1.346 3 3 3h14c1.654 0 3-1.346 3-3v-26c0-1.654-1.346-3-3-3zM9 2h14c0.552 0 1 0.448 1 1v0 21h-16v-21c0-0.552 0.448-1 1-1v0zM23 30h-14c-0.552 0-1-0.448-1-1v0-3h16v3c0 0.552-0.448 1-1 1v0z"></path>
</symbol>
<symbol id="icon-twitter" viewBox="0 0 32 32">
<path d="M32 6.078c-1.19 0.522-2.458 0.868-3.78 1.036 1.36-0.812 2.398-2.088 2.886-3.626-1.268 0.756-2.668 1.29-4.16 1.588-1.204-1.282-2.92-2.076-4.792-2.076-3.632 0-6.556 2.948-6.556 6.562 0 0.52 0.044 1.020 0.152 1.496-5.454-0.266-10.28-2.88-13.522-6.862-0.566 0.982-0.898 2.106-0.898 3.316 0 2.272 1.17 4.286 2.914 5.452-1.054-0.020-2.088-0.326-2.964-0.808 0 0.020 0 0.046 0 0.072 0 3.188 2.274 5.836 5.256 6.446-0.534 0.146-1.116 0.216-1.72 0.216-0.42 0-0.844-0.024-1.242-0.112 0.85 2.598 3.262 4.508 6.13 4.57-2.232 1.746-5.066 2.798-8.134 2.798-0.538 0-1.054-0.024-1.57-0.090 2.906 1.874 6.35 2.944 10.064 2.944 12.072 0 18.672-10 18.672-18.668 0-0.29-0.010-0.57-0.024-0.848 1.302-0.924 2.396-2.078 3.288-3.406z"></path>
</symbol>
</defs>
</svg>
